<svg width="462" height="154" viewBox="0 0 462 154" fill="none" xmlns="http://www.w3.org/2000/svg">
<path d="M428.867 11.6C426.733 13.2 424.6 14.8 424.067 15.2C423.533 15.6 421.133 23.0667 418.6 31.6C413.4 49.2 413.133 48.9333 425.933 38.8C433.133 33.0667 433.8 32 437 21.6C438.867 15.4667 440.333 10.1333 440.333 9.6C440.333 7.46667 432.467 8.8 428.867 11.6Z" fill="white"/>
<path d="M398.2 31.3333C393.4 34.8 392.333 36.5333 389.267 46.9333C387.4 53.3333 385.933 58.6667 386.067 58.8C386.2 59.0667 390.733 55.8667 395.933 52C404.467 45.4667 405.667 44 407.533 37.4667C408.733 33.4667 409.667 29.6 409.667 28.8C409.667 26 403.533 27.3333 398.2 31.3333Z" fill="white"/>
<path d="M421.133 48L411.8 55.0667L408.2 67.2L404.6 79.3333H408.6C411 79.3333 414.6 77.7333 417.533 75.4667C421.933 71.8667 423 69.8667 426.867 56.6667C429.267 48.5333 431 41.6 430.733 41.3333C430.6 41.2 426.2 44.1333 421.133 48Z" fill="white"/>
<path d="M366.6 51.7333C363.267 54.6667 361 58 359.667 62.6667C358.6 66.2667 357.933 69.4667 358.333 69.7333C359.133 70.6667 377 56.5333 377.933 54.2667C381.133 46.1333 374.733 44.6667 366.6 51.7333Z" fill="white"/>
<path d="M392.867 60C385.133 65.8667 383.267 68 381.8 72.8C380.867 76 379.8 79.7333 379.533 80.9333C378.467 84.6667 385 84 390.733 79.7333C393.4 77.7333 395.933 76 396.067 75.8667C396.733 75.3333 403 53.6 402.6 53.2C402.467 52.9333 398.067 56 392.867 60Z" fill="white"/>
<path d="M367.667 69.0667C364.6 71.4667 360.6 74.6667 358.6 76.1333C356.6 77.7333 354.6 80.9333 354.2 83.2C353.4 86.8 353.667 87.3333 356.333 87.3333C361.533 87.3333 370.467 79.7333 372.2 73.7333C373.133 70.8 374.2 67.6 374.6 66.5333C375.667 63.6 373.533 64.4 367.667 69.0667Z" fill="white"/>
<mask id="path-7-outside-1_1_12" maskUnits="userSpaceOnUse" x="0" y="63" width="323" height="35" fill="black">
<rect fill="white" y="63" width="323" height="35"/>
<path d="M13.4277 64.4062V90H10.0879V64.4062H13.4277ZM21.6543 64.4062V67.1836H1.87891V64.4062H21.6543ZM41.7109 87.2402V90H28.1582V87.2402H41.7109ZM28.8438 64.4062V90H25.4512V64.4062H28.8438ZM39.918 75.4102V78.1699H28.1582V75.4102H39.918ZM41.5352 64.4062V67.1836H28.1582V64.4062H41.5352ZM48.1094 64.4062L54.2617 74.2148L60.4141 64.4062H64.3691L56.2832 77.0801L64.5625 90H60.5723L54.2617 79.998L47.9512 90H43.9609L52.2402 77.0801L44.1543 64.4062H48.1094ZM85.1992 75.4102V78.1699H71.3477V75.4102H85.1992ZM71.875 64.4062V90H68.4824V64.4062H71.875ZM88.1523 64.4062V90H84.7773V64.4062H88.1523ZM113.887 76.3945V78.0117C113.887 79.9336 113.646 81.6562 113.166 83.1797C112.686 84.7031 111.994 85.998 111.092 87.0645C110.189 88.1309 109.105 88.9453 107.84 89.5078C106.586 90.0703 105.18 90.3516 103.621 90.3516C102.109 90.3516 100.721 90.0703 99.4551 89.5078C98.2012 88.9453 97.1113 88.1309 96.1855 87.0645C95.2715 85.998 94.5625 84.7031 94.0586 83.1797C93.5547 81.6562 93.3027 79.9336 93.3027 78.0117V76.3945C93.3027 74.4727 93.5488 72.7559 94.041 71.2441C94.5449 69.7207 95.2539 68.4258 96.168 67.3594C97.082 66.2812 98.166 65.4609 99.4199 64.8984C100.686 64.3359 102.074 64.0547 103.586 64.0547C105.145 64.0547 106.551 64.3359 107.805 64.8984C109.07 65.4609 110.154 66.2812 111.057 67.3594C111.971 68.4258 112.668 69.7207 113.148 71.2441C113.641 72.7559 113.887 74.4727 113.887 76.3945ZM110.529 78.0117V76.3594C110.529 74.8359 110.371 73.4883 110.055 72.3164C109.75 71.1445 109.299 70.1602 108.701 69.3633C108.104 68.5664 107.371 67.9629 106.504 67.5527C105.648 67.1426 104.676 66.9375 103.586 66.9375C102.531 66.9375 101.576 67.1426 100.721 67.5527C99.877 67.9629 99.1504 68.5664 98.541 69.3633C97.9434 70.1602 97.4805 71.1445 97.1523 72.3164C96.8242 73.4883 96.6602 74.8359 96.6602 76.3594V78.0117C96.6602 79.5469 96.8242 80.9062 97.1523 82.0898C97.4805 83.2617 97.9492 84.252 98.5586 85.0605C99.1797 85.8574 99.9121 86.4609 100.756 86.8711C101.611 87.2812 102.566 87.4863 103.621 87.4863C104.723 87.4863 105.701 87.2812 106.557 86.8711C107.412 86.4609 108.133 85.8574 108.719 85.0605C109.316 84.252 109.768 83.2617 110.072 82.0898C110.377 80.9062 110.529 79.5469 110.529 78.0117ZM138.496 87.2402V90H119.125V87.2402H138.496ZM119.67 87.2402V96.293H116.312L116.295 87.2402H119.67ZM141.449 87.2402L141.414 96.2754H138.057V87.2402H141.449ZM135.174 64.4062V67.1836H123.959V64.4062H135.174ZM138.092 64.4062V90H134.717V64.4062H138.092ZM122.799 64.4062H126.191L125.664 74.707C125.594 76.2539 125.447 77.6836 125.225 78.9961C125.002 80.2969 124.727 81.4863 124.398 82.5645C124.07 83.6426 123.695 84.6094 123.273 85.4648C122.852 86.3086 122.4 87.041 121.92 87.6621C121.439 88.2715 120.936 88.7754 120.408 89.1738C119.893 89.5605 119.371 89.8359 118.844 90H117.297V87.2402H118.387C118.691 86.9121 119.037 86.4375 119.424 85.8164C119.822 85.1953 120.215 84.3926 120.602 83.4082C121 82.4121 121.346 81.1992 121.639 79.7695C121.943 78.3398 122.148 76.6523 122.254 74.707L122.799 64.4062ZM148.973 84.1289L161.576 64.4062H164.969V90H161.576V70.2598L148.973 90H145.598V64.4062H148.973V84.1289ZM187.855 75.4102V78.1699H174.004V75.4102H187.855ZM174.531 64.4062V90H171.139V64.4062H174.531ZM190.809 64.4062V90H187.434V64.4062H190.809ZM206.629 66.6738L198.156 90H194.693L204.449 64.4062H206.682L206.629 66.6738ZM213.73 90L205.24 66.6738L205.188 64.4062H207.42L217.211 90H213.73ZM213.291 80.5254V83.3027H198.912V80.5254H213.291ZM221.711 64.4062H224.998L233.383 85.2715L241.75 64.4062H245.055L234.648 90H232.082L221.711 64.4062ZM220.639 64.4062H223.539L224.014 80.0156V90H220.639V64.4062ZM243.209 64.4062H246.109V90H242.734V80.0156L243.209 64.4062ZM255.602 84.1289L268.205 64.4062H271.598V90H268.205V70.2598L255.602 90H252.227V64.4062H255.602V84.1289ZM281.318 64.4062V90H277.926V64.4062H281.318ZM297.086 64.4062L285.977 78.4863H279.965L279.438 75.6738H283.955L292.885 64.4062H297.086ZM293.676 90L284.061 78.0469L285.959 75.0762L297.824 90H293.676ZM310.375 66.6738L301.902 90H298.439L308.195 64.4062H310.428L310.375 66.6738ZM317.477 90L308.986 66.6738L308.934 64.4062H311.166L320.957 90H317.477ZM317.037 80.5254V83.3027H302.658V80.5254H317.037Z"/>
</mask>
<path d="M13.4277 64.4062V90H10.0879V64.4062H13.4277ZM21.6543 64.4062V67.1836H1.87891V64.4062H21.6543ZM41.7109 87.2402V90H28.1582V87.2402H41.7109ZM28.8438 64.4062V90H25.4512V64.4062H28.8438ZM39.918 75.4102V78.1699H28.1582V75.4102H39.918ZM41.5352 64.4062V67.1836H28.1582V64.4062H41.5352ZM48.1094 64.4062L54.2617 74.2148L60.4141 64.4062H64.3691L56.2832 77.0801L64.5625 90H60.5723L54.2617 79.998L47.9512 90H43.9609L52.2402 77.0801L44.1543 64.4062H48.1094ZM85.1992 75.4102V78.1699H71.3477V75.4102H85.1992ZM71.875 64.4062V90H68.4824V64.4062H71.875ZM88.1523 64.4062V90H84.7773V64.4062H88.1523ZM113.887 76.3945V78.0117C113.887 79.9336 113.646 81.6562 113.166 83.1797C112.686 84.7031 111.994 85.998 111.092 87.0645C110.189 88.1309 109.105 88.9453 107.84 89.5078C106.586 90.0703 105.18 90.3516 103.621 90.3516C102.109 90.3516 100.721 90.0703 99.4551 89.5078C98.2012 88.9453 97.1113 88.1309 96.1855 87.0645C95.2715 85.998 94.5625 84.7031 94.0586 83.1797C93.5547 81.6562 93.3027 79.9336 93.3027 78.0117V76.3945C93.3027 74.4727 93.5488 72.7559 94.041 71.2441C94.5449 69.7207 95.2539 68.4258 96.168 67.3594C97.082 66.2812 98.166 65.4609 99.4199 64.8984C100.686 64.3359 102.074 64.0547 103.586 64.0547C105.145 64.0547 106.551 64.3359 107.805 64.8984C109.07 65.4609 110.154 66.2812 111.057 67.3594C111.971 68.4258 112.668 69.7207 113.148 71.2441C113.641 72.7559 113.887 74.4727 113.887 76.3945ZM110.529 78.0117V76.3594C110.529 74.8359 110.371 73.4883 110.055 72.3164C109.75 71.1445 109.299 70.1602 108.701 69.3633C108.104 68.5664 107.371 67.9629 106.504 67.5527C105.648 67.1426 104.676 66.9375 103.586 66.9375C102.531 66.9375 101.576 67.1426 100.721 67.5527C99.877 67.9629 99.1504 68.5664 98.541 69.3633C97.9434 70.1602 97.4805 71.1445 97.1523 72.3164C96.8242 73.4883 96.6602 74.8359 96.6602 76.3594V78.0117C96.6602 79.5469 96.8242 80.9062 97.1523 82.0898C97.4805 83.2617 97.9492 84.252 98.5586 85.0605C99.1797 85.8574 99.9121 86.4609 100.756 86.8711C101.611 87.2812 102.566 87.4863 103.621 87.4863C104.723 87.4863 105.701 87.2812 106.557 86.8711C107.412 86.4609 108.133 85.8574 108.719 85.0605C109.316 84.252 109.768 83.2617 110.072 82.0898C110.377 80.9062 110.529 79.5469 110.529 78.0117ZM138.496 87.2402V90H119.125V87.2402H138.496ZM119.67 87.2402V96.293H116.312L116.295 87.2402H119.67ZM141.449 87.2402L141.414 96.2754H138.057V87.2402H141.449ZM135.174 64.4062V67.1836H123.959V64.4062H135.174ZM138.092 64.4062V90H134.717V64.4062H138.092ZM122.799 64.4062H126.191L125.664 74.707C125.594 76.2539 125.447 77.6836 125.225 78.9961C125.002 80.2969 124.727 81.4863 124.398 82.5645C124.07 83.6426 123.695 84.6094 123.273 85.4648C122.852 86.3086 122.4 87.041 121.92 87.6621C121.439 88.2715 120.936 88.7754 120.408 89.1738C119.893 89.5605 119.371 89.8359 118.844 90H117.297V87.2402H118.387C118.691 86.9121 119.037 86.4375 119.424 85.8164C119.822 85.1953 120.215 84.3926 120.602 83.4082C121 82.4121 121.346 81.1992 121.639 79.7695C121.943 78.3398 122.148 76.6523 122.254 74.707L122.799 64.4062ZM148.973 84.1289L161.576 64.4062H164.969V90H161.576V70.2598L148.973 90H145.598V64.4062H148.973V84.1289ZM187.855 75.4102V78.1699H174.004V75.4102H187.855ZM174.531 64.4062V90H171.139V64.4062H174.531ZM190.809 64.4062V90H187.434V64.4062H190.809ZM206.629 66.6738L198.156 90H194.693L204.449 64.4062H206.682L206.629 66.6738ZM213.73 90L205.24 66.6738L205.188 64.4062H207.42L217.211 90H213.73ZM213.291 80.5254V83.3027H198.912V80.5254H213.291ZM221.711 64.4062H224.998L233.383 85.2715L241.75 64.4062H245.055L234.648 90H232.082L221.711 64.4062ZM220.639 64.4062H223.539L224.014 80.0156V90H220.639V64.4062ZM243.209 64.4062H246.109V90H242.734V80.0156L243.209 64.4062ZM255.602 84.1289L268.205 64.4062H271.598V90H268.205V70.2598L255.602 90H252.227V64.4062H255.602V84.1289ZM281.318 64.4062V90H277.926V64.4062H281.318ZM297.086 64.4062L285.977 78.4863H279.965L279.438 75.6738H283.955L292.885 64.4062H297.086ZM293.676 90L284.061 78.0469L285.959 75.0762L297.824 90H293.676ZM310.375 66.6738L301.902 90H298.439L308.195 64.4062H310.428L310.375 66.6738ZM317.477 90L308.986 66.6738L308.934 64.4062H311.166L320.957 90H317.477ZM317.037 80.5254V83.3027H302.658V80.5254H317.037Z" fill="white"/>
<path d="M13.4277 64.4062H14.4277V63.4062H13.4277V64.4062ZM13.4277 90V91H14.4277V90H13.4277ZM10.0879 90H9.08789V91H10.0879V90ZM10.0879 64.4062V63.4062H9.08789V64.4062H10.0879ZM21.6543 64.4062H22.6543V63.4062H21.6543V64.4062ZM21.6543 67.1836V68.1836H22.6543V67.1836H21.6543ZM1.87891 67.1836H0.878906V68.1836H1.87891V67.1836ZM1.87891 64.4062V63.4062H0.878906V64.4062H1.87891ZM13.4277 64.4062H12.4277V90H13.4277H14.4277V64.4062H13.4277ZM13.4277 90V89H10.0879V90V91H13.4277V90ZM10.0879 90H11.0879V64.4062H10.0879H9.08789V90H10.0879ZM10.0879 64.4062V65.4062H13.4277V64.4062V63.4062H10.0879V64.4062ZM21.6543 64.4062H20.6543V67.1836H21.6543H22.6543V64.4062H21.6543ZM21.6543 67.1836V66.1836H1.87891V67.1836V68.1836H21.6543V67.1836ZM1.87891 67.1836H2.87891V64.4062H1.87891H0.878906V67.1836H1.87891ZM1.87891 64.4062V65.4062H21.6543V64.4062V63.4062H1.87891V64.4062ZM41.7109 87.2402H42.7109V86.2402H41.7109V87.2402ZM41.7109 90V91H42.7109V90H41.7109ZM28.1582 90H27.1582V91H28.1582V90ZM28.1582 87.2402V86.2402H27.1582V87.2402H28.1582ZM28.8438 64.4062H29.8438V63.4062H28.8438V64.4062ZM28.8438 90V91H29.8438V90H28.8438ZM25.4512 90H24.4512V91H25.4512V90ZM25.4512 64.4062V63.4062H24.4512V64.4062H25.4512ZM39.918 75.4102H40.918V74.4102H39.918V75.4102ZM39.918 78.1699V79.1699H40.918V78.1699H39.918ZM28.1582 78.1699H27.1582V79.1699H28.1582V78.1699ZM28.1582 75.4102V74.4102H27.1582V75.4102H28.1582ZM41.5352 64.4062H42.5352V63.4062H41.5352V64.4062ZM41.5352 67.1836V68.1836H42.5352V67.1836H41.5352ZM28.1582 67.1836H27.1582V68.1836H28.1582V67.1836ZM28.1582 64.4062V63.4062H27.1582V64.4062H28.1582ZM41.7109 87.2402H40.7109V90H41.7109H42.7109V87.2402H41.7109ZM41.7109 90V89H28.1582V90V91H41.7109V90ZM28.1582 90H29.1582V87.2402H28.1582H27.1582V90H28.1582ZM28.1582 87.2402V88.2402H41.7109V87.2402V86.2402H28.1582V87.2402ZM28.8438 64.4062H27.8438V90H28.8438H29.8438V64.4062H28.8438ZM28.8438 90V89H25.4512V90V91H28.8438V90ZM25.4512 90H26.4512V64.4062H25.4512H24.4512V90H25.4512ZM25.4512 64.4062V65.4062H28.8438V64.4062V63.4062H25.4512V64.4062ZM39.918 75.4102H38.918V78.1699H39.918H40.918V75.4102H39.918ZM39.918 78.1699V77.1699H28.1582V78.1699V79.1699H39.918V78.1699ZM28.1582 78.1699H29.1582V75.4102H28.1582H27.1582V78.1699H28.1582ZM28.1582 75.4102V76.4102H39.918V75.4102V74.4102H28.1582V75.4102ZM41.5352 64.4062H40.5352V67.1836H41.5352H42.5352V64.4062H41.5352ZM41.5352 67.1836V66.1836H28.1582V67.1836V68.1836H41.5352V67.1836ZM28.1582 67.1836H29.1582V64.4062H28.1582H27.1582V67.1836H28.1582ZM28.1582 64.4062V65.4062H41.5352V64.4062V63.4062H28.1582V64.4062ZM48.1094 64.4062L48.9565 63.8749L48.6626 63.4062H48.1094V64.4062ZM54.2617 74.2148L53.4146 74.7462L54.2617 76.0968L55.1089 74.7462L54.2617 74.2148ZM60.4141 64.4062V63.4062H59.8609L59.5669 63.8749L60.4141 64.4062ZM64.3691 64.4062L65.2122 64.9441L66.1933 63.4062H64.3691V64.4062ZM56.2832 77.0801L55.4402 76.5422L55.0963 77.0813L55.4412 77.6196L56.2832 77.0801ZM64.5625 90V91H66.391L65.4045 89.4605L64.5625 90ZM60.5723 90L59.7265 90.5336L60.0208 91H60.5723V90ZM54.2617 79.998L55.1075 79.4644L54.2617 78.124L53.416 79.4644L54.2617 79.998ZM47.9512 90V91H48.5026L48.7969 90.5336L47.9512 90ZM43.9609 90L43.119 89.4605L42.1324 91H43.9609V90ZM52.2402 77.0801L53.0822 77.6196L53.4272 77.0813L53.0833 76.5422L52.2402 77.0801ZM44.1543 64.4062V63.4062H42.3301L43.3113 64.9441L44.1543 64.4062ZM48.1094 64.4062L47.2622 64.9376L53.4146 74.7462L54.2617 74.2148L55.1089 73.6835L48.9565 63.8749L48.1094 64.4062ZM54.2617 74.2148L55.1089 74.7462L61.2612 64.9376L60.4141 64.4062L59.5669 63.8749L53.4146 73.6835L54.2617 74.2148ZM60.4141 64.4062V65.4062H64.3691V64.4062V63.4062H60.4141V64.4062ZM64.3691 64.4062L63.5261 63.8684L55.4402 76.5422L56.2832 77.0801L57.1262 77.6179L65.2122 64.9441L64.3691 64.4062ZM56.2832 77.0801L55.4412 77.6196L63.7205 90.5395L64.5625 90L65.4045 89.4605L57.1252 76.5405L56.2832 77.0801ZM64.5625 90V89H60.5723V90V91H64.5625V90ZM60.5723 90L61.418 89.4664L55.1075 79.4644L54.2617 79.998L53.416 80.5316L59.7265 90.5336L60.5723 90ZM54.2617 79.998L53.416 79.4644L47.1054 89.4664L47.9512 90L48.7969 90.5336L55.1075 80.5316L54.2617 79.998ZM47.9512 90V89H43.9609V90V91H47.9512V90ZM43.9609 90L44.8029 90.5395L53.0822 77.6196L52.2402 77.0801L51.3983 76.5405L43.119 89.4605L43.9609 90ZM52.2402 77.0801L53.0833 76.5422L44.9973 63.8684L44.1543 64.4062L43.3113 64.9441L51.3972 77.6179L52.2402 77.0801ZM44.1543 64.4062V65.4062H48.1094V64.4062V63.4062H44.1543V64.4062ZM85.1992 75.4102H86.1992V74.4102H85.1992V75.4102ZM85.1992 78.1699V79.1699H86.1992V78.1699H85.1992ZM71.3477 78.1699H70.3477V79.1699H71.3477V78.1699ZM71.3477 75.4102V74.4102H70.3477V75.4102H71.3477ZM71.875 64.4062H72.875V63.4062H71.875V64.4062ZM71.875 90V91H72.875V90H71.875ZM68.4824 90H67.4824V91H68.4824V90ZM68.4824 64.4062V63.4062H67.4824V64.4062H68.4824ZM88.1523 64.4062H89.1523V63.4062H88.1523V64.4062ZM88.1523 90V91H89.1523V90H88.1523ZM84.7773 90H83.7773V91H84.7773V90ZM84.7773 64.4062V63.4062H83.7773V64.4062H84.7773ZM85.1992 75.4102H84.1992V78.1699H85.1992H86.1992V75.4102H85.1992ZM85.1992 78.1699V77.1699H71.3477V78.1699V79.1699H85.1992V78.1699ZM71.3477 78.1699H72.3477V75.4102H71.3477H70.3477V78.1699H71.3477ZM71.3477 75.4102V76.4102H85.1992V75.4102V74.4102H71.3477V75.4102ZM71.875 64.4062H70.875V90H71.875H72.875V64.4062H71.875ZM71.875 90V89H68.4824V90V91H71.875V90ZM68.4824 90H69.4824V64.4062H68.4824H67.4824V90H68.4824ZM68.4824 64.4062V65.4062H71.875V64.4062V63.4062H68.4824V64.4062ZM88.1523 64.4062H87.1523V90H88.1523H89.1523V64.4062H88.1523ZM88.1523 90V89H84.7773V90V91H88.1523V90ZM84.7773 90H85.7773V64.4062H84.7773H83.7773V90H84.7773ZM84.7773 64.4062V65.4062H88.1523V64.4062V63.4062H84.7773V64.4062ZM107.84 89.5078L107.434 88.594L107.431 88.5954L107.84 89.5078ZM99.4551 89.5078L99.0458 90.4202L99.0489 90.4216L99.4551 89.5078ZM96.1855 87.0645L95.4263 87.7153L95.4304 87.72L96.1855 87.0645ZM94.041 71.2441L93.0916 70.9301L93.0901 70.9346L94.041 71.2441ZM96.168 67.3594L96.9272 68.0102L96.9307 68.0061L96.168 67.3594ZM99.4199 64.8984L99.0138 63.9846L99.0106 63.986L99.4199 64.8984ZM107.805 64.8984L107.395 65.8108L107.399 65.8122L107.805 64.8984ZM111.057 67.3594L110.29 68.0012L110.297 68.0102L111.057 67.3594ZM113.148 71.2441L112.195 71.5449L112.198 71.5537L113.148 71.2441ZM110.055 72.3164L109.087 72.5681L109.089 72.5771L110.055 72.3164ZM106.504 67.5527L106.072 68.4545L106.076 68.4567L106.504 67.5527ZM100.721 67.5527L100.288 66.651L100.284 66.6534L100.721 67.5527ZM98.541 69.3633L97.7466 68.7558L97.741 68.7633L98.541 69.3633ZM97.1523 82.0898L96.1887 82.357L96.1894 82.3595L97.1523 82.0898ZM98.5586 85.0605L97.76 85.6624L97.7649 85.6689L97.7699 85.6753L98.5586 85.0605ZM100.756 86.8711L100.319 87.7705L100.324 87.7728L100.756 86.8711ZM108.719 85.0605L107.915 84.4662L107.913 84.4682L108.719 85.0605ZM110.072 82.0898L111.04 82.3415L111.041 82.3391L110.072 82.0898ZM113.887 76.3945H112.887V78.0117H113.887H114.887V76.3945H113.887ZM113.887 78.0117H112.887C112.887 79.8516 112.657 81.4702 112.212 82.8789L113.166 83.1797L114.12 83.4805C114.636 81.8423 114.887 80.0156 114.887 78.0117H113.887ZM113.166 83.1797L112.212 82.8789C111.766 84.2938 111.134 85.4669 110.328 86.4185L111.092 87.0645L111.855 87.7104C112.855 86.5292 113.605 85.1124 114.12 83.4805L113.166 83.1797ZM111.092 87.0645L110.328 86.4185C109.523 87.3709 108.56 88.0933 107.434 88.594L107.84 89.5078L108.246 90.4216C109.651 89.7974 110.856 88.8908 111.855 87.7104L111.092 87.0645ZM107.84 89.5078L107.431 88.5954C106.322 89.0929 105.058 89.3516 103.621 89.3516V90.3516V91.3516C105.302 91.3516 106.85 91.0477 108.249 90.4202L107.84 89.5078ZM103.621 90.3516V89.3516C102.236 89.3516 100.988 89.0946 99.8612 88.594L99.4551 89.5078L99.0489 90.4216C100.454 91.046 101.982 91.3516 103.621 91.3516V90.3516ZM99.4551 89.5078L99.8644 88.5954C98.7468 88.094 97.7739 87.3687 96.9407 86.4089L96.1855 87.0645L95.4304 87.72C96.4487 88.893 97.6556 89.7966 99.0458 90.4202L99.4551 89.5078ZM96.1855 87.0645L96.9448 86.4137C96.1266 85.4591 95.4768 84.283 95.008 82.8657L94.0586 83.1797L93.1092 83.4937C93.6482 85.1232 94.4163 86.537 95.4263 87.7152L96.1855 87.0645ZM94.0586 83.1797L95.008 82.8657C94.5435 81.4613 94.3027 79.8473 94.3027 78.0117H93.3027H92.3027C92.3027 80.0198 92.5659 81.8512 93.1092 83.4937L94.0586 83.1797ZM93.3027 78.0117H94.3027V76.3945H93.3027H92.3027V78.0117H93.3027ZM93.3027 76.3945H94.3027C94.3027 74.5566 94.5382 72.9471 94.9919 71.5537L94.041 71.2441L93.0901 70.9346C92.5594 72.5646 92.3027 74.3887 92.3027 76.3945H93.3027ZM94.041 71.2441L94.9904 71.5582C95.4592 70.1408 96.1091 68.9647 96.9272 68.0102L96.168 67.3594L95.4087 66.7086C94.3988 67.8869 93.6306 69.3006 93.0916 70.9301L94.041 71.2441ZM96.168 67.3594L96.9307 68.0061C97.7511 67.0384 98.7154 66.3105 99.8292 65.8108L99.4199 64.8984L99.0106 63.986C97.6166 64.6114 96.413 65.5241 95.4052 66.7127L96.168 67.3594ZM99.4199 64.8984L99.8261 65.8122C100.953 65.3116 102.201 65.0547 103.586 65.0547V64.0547V63.0547C101.947 63.0547 100.419 63.3603 99.0138 63.9846L99.4199 64.8984ZM103.586 64.0547V65.0547C105.022 65.0547 106.286 65.3134 107.395 65.8108L107.805 64.8984L108.214 63.986C106.815 63.3585 105.267 63.0547 103.586 63.0547V64.0547ZM107.805 64.8984L107.399 65.8122C108.523 66.3118 109.484 67.0382 110.29 68.0012L111.057 67.3594L111.823 66.7176C110.825 65.5243 109.618 64.61 108.211 63.9846L107.805 64.8984ZM111.057 67.3594L110.297 68.0102C111.112 68.9611 111.749 70.1325 112.195 71.5449L113.148 71.2441L114.102 70.9434C113.587 69.3089 112.829 67.8905 111.816 66.7086L111.057 67.3594ZM113.148 71.2441L112.198 71.5537C112.651 72.9471 112.887 74.5566 112.887 76.3945H113.887H114.887C114.887 74.3887 114.63 72.5646 114.099 70.9346L113.148 71.2441ZM110.529 78.0117H111.529V76.3594H110.529H109.529V78.0117H110.529ZM110.529 76.3594H111.529C111.529 74.7692 111.364 73.331 111.02 72.0557L110.055 72.3164L109.089 72.5771C109.378 73.6456 109.529 74.9027 109.529 76.3594H110.529ZM110.055 72.3164L111.023 72.0648C110.692 70.7934 110.192 69.6841 109.501 68.7633L108.701 69.3633L107.901 69.9633C108.406 70.6362 108.808 71.4957 109.087 72.568L110.055 72.3164ZM108.701 69.3633L109.501 68.7633C108.81 67.8415 107.951 67.1312 106.931 66.6487L106.504 67.5527L106.076 68.4567C106.791 68.7946 107.397 69.2913 107.901 69.9633L108.701 69.3633ZM106.504 67.5527L106.936 66.651C105.927 66.1672 104.803 65.9375 103.586 65.9375V66.9375V67.9375C104.548 67.9375 105.37 68.118 106.072 68.4545L106.504 67.5527ZM103.586 66.9375V65.9375C102.398 65.9375 101.293 66.1692 100.288 66.651L100.721 67.5527L101.153 68.4545C101.859 68.1159 102.664 67.9375 103.586 67.9375V66.9375ZM100.721 67.5527L100.284 66.6534C99.29 67.1363 98.444 67.8439 97.7467 68.7558L98.541 69.3633L99.3354 69.9707C99.8568 69.2889 100.464 68.7894 101.158 68.4521L100.721 67.5527ZM98.541 69.3633L97.741 68.7633C97.0546 69.6785 96.5437 70.7813 96.1894 72.0468L97.1523 72.3164L98.1153 72.586C98.4172 71.5078 98.8321 70.6418 99.341 69.9633L98.541 69.3633ZM97.1523 72.3164L96.1894 72.0468C95.8314 73.3252 95.6602 74.7666 95.6602 76.3594H96.6602H97.6602C97.6602 74.9053 97.817 73.6513 98.1153 72.586L97.1523 72.3164ZM96.6602 76.3594H95.6602V78.0117H96.6602H97.6602V76.3594H96.6602ZM96.6602 78.0117H95.6602C95.6602 79.6157 95.8313 81.0679 96.1887 82.357L97.1523 82.0898L98.116 81.8227C97.8171 80.7446 97.6602 79.4781 97.6602 78.0117H96.6602ZM97.1523 82.0898L96.1894 82.3595C96.5445 83.6277 97.0621 84.7364 97.76 85.6624L98.5586 85.0605L99.3572 84.4587C98.8363 83.7675 98.4164 82.8957 98.1153 81.8202L97.1523 82.0898ZM98.5586 85.0605L97.7699 85.6753C98.4775 86.5832 99.3271 87.2885 100.319 87.7705L100.756 86.8711L101.193 85.9717C100.497 85.6334 99.8819 85.1317 99.3473 84.4458L98.5586 85.0605ZM100.756 86.8711L100.324 87.7728C101.328 88.2546 102.434 88.4863 103.621 88.4863V87.4863V86.4863C102.699 86.4863 101.894 86.3079 101.188 85.9694L100.756 86.8711ZM103.621 87.4863V88.4863C104.848 88.4863 105.978 88.2573 106.989 87.7728L106.557 86.8711L106.124 85.9694C105.424 86.3052 104.597 86.4863 103.621 86.4863V87.4863ZM106.557 86.8711L106.989 87.7728C107.999 87.2887 108.846 86.5762 109.524 85.6529L108.719 85.0605L107.913 84.4682C107.42 85.1387 106.825 85.6332 106.124 85.9694L106.557 86.8711ZM108.719 85.0605L109.523 85.6549C110.21 84.7249 110.71 83.6124 111.04 82.3415L110.072 82.0898L109.104 81.8382C108.825 82.9111 108.422 83.779 107.915 84.4662L108.719 85.0605ZM110.072 82.0898L111.041 82.3391C111.371 81.0565 111.529 79.6106 111.529 78.0117H110.529H109.529C109.529 79.4832 109.383 80.756 109.104 81.8405L110.072 82.0898ZM138.496 87.2402H139.496V86.2402H138.496V87.2402ZM138.496 90V91H139.496V90H138.496ZM119.125 90H118.125V91H119.125V90ZM119.125 87.2402V86.2402H118.125V87.2402H119.125ZM119.67 87.2402H120.67V86.2402H119.67V87.2402ZM119.67 96.293V97.293H120.67V96.293H119.67ZM116.312 96.293L115.313 96.2949L115.314 97.293H116.312V96.293ZM116.295 87.2402V86.2402H115.293L115.295 87.2422L116.295 87.2402ZM141.449 87.2402L142.449 87.2441L142.453 86.2402H141.449V87.2402ZM141.414 96.2754V97.2754H142.41L142.414 96.2793L141.414 96.2754ZM138.057 96.2754H137.057V97.2754H138.057V96.2754ZM138.057 87.2402V86.2402H137.057V87.2402H138.057ZM135.174 64.4062H136.174V63.4062H135.174V64.4062ZM135.174 67.1836V68.1836H136.174V67.1836H135.174ZM123.959 67.1836H122.959V68.1836H123.959V67.1836ZM123.959 64.4062V63.4062H122.959V64.4062H123.959ZM138.092 64.4062H139.092V63.4062H138.092V64.4062ZM138.092 90V91H139.092V90H138.092ZM134.717 90H133.717V91H134.717V90ZM134.717 64.4062V63.4062H133.717V64.4062H134.717ZM122.799 64.4062V63.4062H121.85L121.8 64.3534L122.799 64.4062ZM126.191 64.4062L127.19 64.4574L127.244 63.4062H126.191V64.4062ZM125.664 74.707L124.665 74.6559L124.665 74.6616L125.664 74.707ZM125.225 78.9961L126.21 79.1648L126.211 79.1633L125.225 78.9961ZM123.273 85.4648L124.168 85.9121L124.17 85.9071L123.273 85.4648ZM121.92 87.6621L122.705 88.2813L122.711 88.274L121.92 87.6621ZM120.408 89.1738L121.008 89.9738L121.011 89.9717L120.408 89.1738ZM118.844 90V91H118.996L119.141 90.9549L118.844 90ZM117.297 90H116.297V91H117.297V90ZM117.297 87.2402V86.2402H116.297V87.2402H117.297ZM118.387 87.2402V88.2402H118.823L119.12 87.9207L118.387 87.2402ZM119.424 85.8164L118.582 85.2764L118.575 85.2878L119.424 85.8164ZM120.602 83.4082L119.673 83.0368L119.671 83.0426L120.602 83.4082ZM121.639 79.7695L120.661 79.5611L120.659 79.5688L121.639 79.7695ZM122.254 74.707L123.252 74.7612L123.253 74.7599L122.254 74.707ZM138.496 87.2402H137.496V90H138.496H139.496V87.2402H138.496ZM138.496 90V89H119.125V90V91H138.496V90ZM119.125 90H120.125V87.2402H119.125H118.125V90H119.125ZM119.125 87.2402V88.2402H138.496V87.2402V86.2402H119.125V87.2402ZM119.67 87.2402H118.67V96.293H119.67H120.67V87.2402H119.67ZM119.67 96.293V95.293H116.312V96.293V97.293H119.67V96.293ZM116.312 96.293L117.312 96.291L117.295 87.2383L116.295 87.2402L115.295 87.2422L115.313 96.2949L116.312 96.293ZM116.295 87.2402V88.2402H119.67V87.2402V86.2402H116.295V87.2402ZM141.449 87.2402L140.449 87.2363L140.414 96.2715L141.414 96.2754L142.414 96.2793L142.449 87.2441L141.449 87.2402ZM141.414 96.2754V95.2754H138.057V96.2754V97.2754H141.414V96.2754ZM138.057 96.2754H139.057V87.2402H138.057H137.057V96.2754H138.057ZM138.057 87.2402V88.2402H141.449V87.2402V86.2402H138.057V87.2402ZM135.174 64.4062H134.174V67.1836H135.174H136.174V64.4062H135.174ZM135.174 67.1836V66.1836H123.959V67.1836V68.1836H135.174V67.1836ZM123.959 67.1836H124.959V64.4062H123.959H122.959V67.1836H123.959ZM123.959 64.4062V65.4062H135.174V64.4062V63.4062H123.959V64.4062ZM138.092 64.4062H137.092V90H138.092H139.092V64.4062H138.092ZM138.092 90V89H134.717V90V91H138.092V90ZM134.717 90H135.717V64.4062H134.717H133.717V90H134.717ZM134.717 64.4062V65.4062H138.092V64.4062V63.4062H134.717V64.4062ZM122.799 64.4062V65.4062H126.191V64.4062V63.4062H122.799V64.4062ZM126.191 64.4062L125.193 64.3551L124.665 74.6559L125.664 74.707L126.663 74.7582L127.19 64.4574L126.191 64.4062ZM125.664 74.707L124.665 74.6616C124.596 76.1741 124.454 77.5625 124.239 78.8288L125.225 78.9961L126.211 79.1633C126.441 77.8047 126.591 76.3337 126.663 74.7524L125.664 74.707ZM125.225 78.9961L124.239 78.8274C124.022 80.0936 123.756 81.2414 123.442 82.2733L124.398 82.5645L125.355 82.8556C125.697 81.7312 125.982 80.5002 126.21 79.1648L125.225 78.9961ZM124.398 82.5645L123.442 82.2733C123.127 83.3085 122.771 84.2236 122.377 85.0226L123.273 85.4648L124.17 85.9071C124.62 84.9952 125.014 83.9766 125.355 82.8556L124.398 82.5645ZM123.273 85.4648L122.379 85.0176C121.981 85.8145 121.563 86.4896 121.129 87.0502L121.92 87.6621L122.711 88.274C123.238 87.5925 123.723 86.8027 124.168 85.9121L123.273 85.4648ZM121.92 87.6621L121.135 87.043C120.698 87.5965 120.254 88.0371 119.805 88.376L120.408 89.1738L121.011 89.9717C121.617 89.5137 122.181 88.9464 122.705 88.2813L121.92 87.6621ZM120.408 89.1738L119.808 88.3738C119.369 88.7032 118.948 88.9202 118.547 89.0451L118.844 90L119.141 90.9549C119.794 90.7517 120.416 90.4179 121.008 89.9738L120.408 89.1738ZM118.844 90V89H117.297V90V91H118.844V90ZM117.297 90H118.297V87.2402H117.297H116.297V90H117.297ZM117.297 87.2402V88.2402H118.387V87.2402V86.2402H117.297V87.2402ZM118.387 87.2402L119.12 87.9207C119.486 87.5258 119.871 86.9908 120.273 86.345L119.424 85.8164L118.575 85.2878C118.204 85.8842 117.897 86.2984 117.654 86.5598L118.387 87.2402ZM119.424 85.8164L120.266 86.3564C120.711 85.6622 121.131 84.7953 121.532 83.7739L120.602 83.4082L119.671 83.0426C119.299 83.9898 118.934 84.7284 118.582 85.2765L119.424 85.8164ZM120.602 83.4082L121.53 83.7796C121.957 82.7126 122.317 81.439 122.618 79.9703L121.639 79.7695L120.659 79.5688C120.374 80.9595 120.043 82.1116 119.673 83.0368L120.602 83.4082ZM121.639 79.7695L122.617 79.978C122.935 78.4839 123.145 76.7424 123.252 74.7612L122.254 74.707L121.255 74.6529C121.152 76.5622 120.952 78.1958 120.661 79.5611L121.639 79.7695ZM122.254 74.707L123.253 74.7599L123.797 64.4591L122.799 64.4062L121.8 64.3534L121.255 74.6542L122.254 74.707ZM148.973 84.1289H147.973V87.5508L149.815 84.6674L148.973 84.1289ZM161.576 64.4062V63.4062H161.028L160.734 63.8678L161.576 64.4062ZM164.969 64.4062H165.969V63.4062H164.969V64.4062ZM164.969 90V91H165.969V90H164.969ZM161.576 90H160.576V91H161.576V90ZM161.576 70.2598H162.576V66.8353L160.733 69.7216L161.576 70.2598ZM148.973 90V91H149.521L149.816 90.5381L148.973 90ZM145.598 90H144.598V91H145.598V90ZM145.598 64.4062V63.4062H144.598V64.4062H145.598ZM148.973 64.4062H149.973V63.4062H148.973V64.4062ZM148.973 84.1289L149.815 84.6674L162.419 64.9447L161.576 64.4062L160.734 63.8678L148.13 83.5904L148.973 84.1289ZM161.576 64.4062V65.4062H164.969V64.4062V63.4062H161.576V64.4062ZM164.969 64.4062H163.969V90H164.969H165.969V64.4062H164.969ZM164.969 90V89H161.576V90V91H164.969V90ZM161.576 90H162.576V70.2598H161.576H160.576V90H161.576ZM161.576 70.2598L160.733 69.7216L148.13 89.4619L148.973 90L149.816 90.5381L162.419 70.7979L161.576 70.2598ZM148.973 90V89H145.598V90V91H148.973V90ZM145.598 90H146.598V64.4062H145.598H144.598V90H145.598ZM145.598 64.4062V65.4062H148.973V64.4062V63.4062H145.598V64.4062ZM148.973 64.4062H147.973V84.1289H148.973H149.973V64.4062H148.973ZM187.855 75.4102H188.855V74.4102H187.855V75.4102ZM187.855 78.1699V79.1699H188.855V78.1699H187.855ZM174.004 78.1699H173.004V79.1699H174.004V78.1699ZM174.004 75.4102V74.4102H173.004V75.4102H174.004ZM174.531 64.4062H175.531V63.4062H174.531V64.4062ZM174.531 90V91H175.531V90H174.531ZM171.139 90H170.139V91H171.139V90ZM171.139 64.4062V63.4062H170.139V64.4062H171.139ZM190.809 64.4062H191.809V63.4062H190.809V64.4062ZM190.809 90V91H191.809V90H190.809ZM187.434 90H186.434V91H187.434V90ZM187.434 64.4062V63.4062H186.434V64.4062H187.434ZM187.855 75.4102H186.855V78.1699H187.855H188.855V75.4102H187.855ZM187.855 78.1699V77.1699H174.004V78.1699V79.1699H187.855V78.1699ZM174.004 78.1699H175.004V75.4102H174.004H173.004V78.1699H174.004ZM174.004 75.4102V76.4102H187.855V75.4102V74.4102H174.004V75.4102ZM174.531 64.4062H173.531V90H174.531H175.531V64.4062H174.531ZM174.531 90V89H171.139V90V91H174.531V90ZM171.139 90H172.139V64.4062H171.139H170.139V90H171.139ZM171.139 64.4062V65.4062H174.531V64.4062V63.4062H171.139V64.4062ZM190.809 64.4062H189.809V90H190.809H191.809V64.4062H190.809ZM190.809 90V89H187.434V90V91H190.809V90ZM187.434 90H188.434V64.4062H187.434H186.434V90H187.434ZM187.434 64.4062V65.4062H190.809V64.4062V63.4062H187.434V64.4062ZM206.629 66.6738L207.569 67.0152L207.625 66.8611L207.629 66.6971L206.629 66.6738ZM198.156 90V91H198.857L199.096 90.3414L198.156 90ZM194.693 90L193.759 89.6438L193.242 91H194.693V90ZM204.449 64.4062V63.4062H203.76L203.515 64.0501L204.449 64.4062ZM206.682 64.4062L207.681 64.4295L207.705 63.4062H206.682V64.4062ZM213.73 90L212.791 90.342L213.03 91H213.73V90ZM205.24 66.6738L204.241 66.6971L204.244 66.8614L204.301 67.0159L205.24 66.6738ZM205.188 64.4062V63.4062H204.164L204.188 64.4295L205.188 64.4062ZM207.42 64.4062L208.354 64.0489L208.108 63.4062H207.42V64.4062ZM217.211 90V91H218.664L218.145 89.6427L217.211 90ZM213.291 80.5254H214.291V79.5254H213.291V80.5254ZM213.291 83.3027V84.3027H214.291V83.3027H213.291ZM198.912 83.3027H197.912V84.3027H198.912V83.3027ZM198.912 80.5254V79.5254H197.912V80.5254H198.912ZM206.629 66.6738L205.689 66.3324L197.216 89.6586L198.156 90L199.096 90.3414L207.569 67.0152L206.629 66.6738ZM198.156 90V89H194.693V90V91H198.156V90ZM194.693 90L195.628 90.3562L205.384 64.7624L204.449 64.4062L203.515 64.0501L193.759 89.6438L194.693 90ZM204.449 64.4062V65.4062H206.682V64.4062V63.4062H204.449V64.4062ZM206.682 64.4062L205.682 64.383L205.629 66.6506L206.629 66.6738L207.629 66.6971L207.681 64.4295L206.682 64.4062ZM213.73 90L214.67 89.658L206.18 66.3318L205.24 66.6738L204.301 67.0159L212.791 90.342L213.73 90ZM205.24 66.6738L206.24 66.6506L206.187 64.383L205.188 64.4062L204.188 64.4295L204.241 66.6971L205.24 66.6738ZM205.188 64.4062V65.4062H207.42V64.4062V63.4062H205.188V64.4062ZM207.42 64.4062L206.486 64.7636L216.277 90.3573L217.211 90L218.145 89.6427L208.354 64.0489L207.42 64.4062ZM217.211 90V89H213.73V90V91H217.211V90ZM213.291 80.5254H212.291V83.3027H213.291H214.291V80.5254H213.291ZM213.291 83.3027V82.3027H198.912V83.3027V84.3027H213.291V83.3027ZM198.912 83.3027H199.912V80.5254H198.912H197.912V83.3027H198.912ZM198.912 80.5254V81.5254H213.291V80.5254V79.5254H198.912V80.5254ZM221.711 64.4062V63.4062H220.227L220.784 64.7818L221.711 64.4062ZM224.998 64.4062L225.926 64.0334L225.674 63.4062H224.998V64.4062ZM233.383 85.2715L232.455 85.6444L233.384 87.9558L234.311 85.6437L233.383 85.2715ZM241.75 64.4062V63.4062H241.074L240.822 64.0341L241.75 64.4062ZM245.055 64.4062L245.981 64.7829L246.541 63.4062H245.055V64.4062ZM234.648 90V91H235.321L235.575 90.3767L234.648 90ZM232.082 90L231.155 90.3756L231.408 91H232.082V90ZM220.639 64.4062V63.4062H219.639V64.4062H220.639ZM223.539 64.4062L224.539 64.3759L224.509 63.4062H223.539V64.4062ZM224.014 80.0156H225.014V80.0004L225.013 79.9852L224.014 80.0156ZM224.014 90V91H225.014V90H224.014ZM220.639 90H219.639V91H220.639V90ZM243.209 64.4062V63.4062H242.239L242.209 64.3759L243.209 64.4062ZM246.109 64.4062H247.109V63.4062H246.109V64.4062ZM246.109 90V91H247.109V90H246.109ZM242.734 90H241.734V91H242.734V90ZM242.734 80.0156L241.735 79.9852L241.734 80.0004V80.0156H242.734ZM221.711 64.4062V65.4062H224.998V64.4062V63.4062H221.711V64.4062ZM224.998 64.4062L224.07 64.7791L232.455 85.6444L233.383 85.2715L234.311 84.8986L225.926 64.0334L224.998 64.4062ZM233.383 85.2715L234.311 85.6437L242.678 64.7784L241.75 64.4062L240.822 64.0341L232.455 84.8993L233.383 85.2715ZM241.75 64.4062V65.4062H245.055V64.4062V63.4062H241.75V64.4062ZM245.055 64.4062L244.128 64.0296L233.722 89.6233L234.648 90L235.575 90.3767L245.981 64.7829L245.055 64.4062ZM234.648 90V89H232.082V90V91H234.648V90ZM232.082 90L233.009 89.6244L222.638 64.0307L221.711 64.4062L220.784 64.7818L231.155 90.3756L232.082 90ZM220.639 64.4062V65.4062H223.539V64.4062V63.4062H220.639V64.4062ZM223.539 64.4062L222.54 64.4366L223.014 80.046L224.014 80.0156L225.013 79.9852L224.539 64.3759L223.539 64.4062ZM224.014 80.0156H223.014V90H224.014H225.014V80.0156H224.014ZM224.014 90V89H220.639V90V91H224.014V90ZM220.639 90H221.639V64.4062H220.639H219.639V90H220.639ZM243.209 64.4062V65.4062H246.109V64.4062V63.4062H243.209V64.4062ZM246.109 64.4062H245.109V90H246.109H247.109V64.4062H246.109ZM246.109 90V89H242.734V90V91H246.109V90ZM242.734 90H243.734V80.0156H242.734H241.734V90H242.734ZM242.734 80.0156L243.734 80.046L244.209 64.4366L243.209 64.4062L242.209 64.3759L241.735 79.9852L242.734 80.0156ZM255.602 84.1289H254.602V87.5508L256.444 84.6674L255.602 84.1289ZM268.205 64.4062V63.4062H267.657L267.362 63.8678L268.205 64.4062ZM271.598 64.4062H272.598V63.4062H271.598V64.4062ZM271.598 90V91H272.598V90H271.598ZM268.205 90H267.205V91H268.205V90ZM268.205 70.2598H269.205V66.8353L267.362 69.7216L268.205 70.2598ZM255.602 90V91H256.15L256.444 90.5381L255.602 90ZM252.227 90H251.227V91H252.227V90ZM252.227 64.4062V63.4062H251.227V64.4062H252.227ZM255.602 64.4062H256.602V63.4062H255.602V64.4062ZM255.602 84.1289L256.444 84.6674L269.048 64.9447L268.205 64.4062L267.362 63.8678L254.759 83.5904L255.602 84.1289ZM268.205 64.4062V65.4062H271.598V64.4062V63.4062H268.205V64.4062ZM271.598 64.4062H270.598V90H271.598H272.598V64.4062H271.598ZM271.598 90V89H268.205V90V91H271.598V90ZM268.205 90H269.205V70.2598H268.205H267.205V90H268.205ZM268.205 70.2598L267.362 69.7216L254.759 89.4619L255.602 90L256.444 90.5381L269.048 70.7979L268.205 70.2598ZM255.602 90V89H252.227V90V91H255.602V90ZM252.227 90H253.227V64.4062H252.227H251.227V90H252.227ZM252.227 64.4062V65.4062H255.602V64.4062V63.4062H252.227V64.4062ZM255.602 64.4062H254.602V84.1289H255.602H256.602V64.4062H255.602ZM281.318 64.4062H282.318V63.4062H281.318V64.4062ZM281.318 90V91H282.318V90H281.318ZM277.926 90H276.926V91H277.926V90ZM277.926 64.4062V63.4062H276.926V64.4062H277.926ZM297.086 64.4062L297.871 65.0257L299.149 63.4062H297.086V64.4062ZM285.977 78.4863V79.4863H286.461L286.762 79.1057L285.977 78.4863ZM279.965 78.4863L278.982 78.6706L279.135 79.4863H279.965V78.4863ZM279.438 75.6738V74.6738H278.233L278.455 75.8581L279.438 75.6738ZM283.955 75.6738V76.6738H284.439L284.739 76.2949L283.955 75.6738ZM292.885 64.4062V63.4062H292.401L292.101 63.7851L292.885 64.4062ZM293.676 90L292.897 90.6268L293.197 91H293.676V90ZM284.061 78.0469L283.218 77.5084L282.831 78.1138L283.281 78.6737L284.061 78.0469ZM285.959 75.0762L286.742 74.4538L285.87 73.3578L285.116 74.5377L285.959 75.0762ZM297.824 90V91H299.897L298.607 89.3777L297.824 90ZM281.318 64.4062H280.318V90H281.318H282.318V64.4062H281.318ZM281.318 90V89H277.926V90V91H281.318V90ZM277.926 90H278.926V64.4062H277.926H276.926V90H277.926ZM277.926 64.4062V65.4062H281.318V64.4062V63.4062H277.926V64.4062ZM297.086 64.4062L296.301 63.7868L285.192 77.8669L285.977 78.4863L286.762 79.1057L297.871 65.0257L297.086 64.4062ZM285.977 78.4863V77.4863H279.965V78.4863V79.4863H285.977V78.4863ZM279.965 78.4863L280.948 78.302L280.42 75.4895L279.438 75.6738L278.455 75.8581L278.982 78.6706L279.965 78.4863ZM279.438 75.6738V76.6738H283.955V75.6738V74.6738H279.438V75.6738ZM283.955 75.6738L284.739 76.2949L293.668 65.0274L292.885 64.4062L292.101 63.7851L283.171 75.0527L283.955 75.6738ZM292.885 64.4062V65.4062H297.086V64.4062V63.4062H292.885V64.4062ZM293.676 90L294.455 89.3732L284.84 77.4201L284.061 78.0469L283.281 78.6737L292.897 90.6268L293.676 90ZM284.061 78.0469L284.903 78.5854L286.802 75.6147L285.959 75.0762L285.116 74.5377L283.218 77.5084L284.061 78.0469ZM285.959 75.0762L285.176 75.6985L297.041 90.6223L297.824 90L298.607 89.3777L286.742 74.4538L285.959 75.0762ZM297.824 90V89H293.676V90V91H297.824V90ZM310.375 66.6738L311.315 67.0152L311.371 66.8611L311.375 66.6971L310.375 66.6738ZM301.902 90V91H302.603L302.842 90.3414L301.902 90ZM298.439 90L297.505 89.6438L296.988 91H298.439V90ZM308.195 64.4062V63.4062H307.506L307.261 64.0501L308.195 64.4062ZM310.428 64.4062L311.427 64.4295L311.451 63.4062H310.428V64.4062ZM317.477 90L316.537 90.342L316.776 91H317.477V90ZM308.986 66.6738L307.987 66.6971L307.99 66.8614L308.047 67.0159L308.986 66.6738ZM308.934 64.4062V63.4062H307.91L307.934 64.4295L308.934 64.4062ZM311.166 64.4062L312.1 64.0489L311.854 63.4062H311.166V64.4062ZM320.957 90V91H322.41L321.891 89.6427L320.957 90ZM317.037 80.5254H318.037V79.5254H317.037V80.5254ZM317.037 83.3027V84.3027H318.037V83.3027H317.037ZM302.658 83.3027H301.658V84.3027H302.658V83.3027ZM302.658 80.5254V79.5254H301.658V80.5254H302.658ZM310.375 66.6738L309.435 66.3324L300.962 89.6586L301.902 90L302.842 90.3414L311.315 67.0152L310.375 66.6738ZM301.902 90V89H298.439V90V91H301.902V90ZM298.439 90L299.374 90.3562L309.13 64.7624L308.195 64.4062L307.261 64.0501L297.505 89.6438L298.439 90ZM308.195 64.4062V65.4062H310.428V64.4062V63.4062H308.195V64.4062ZM310.428 64.4062L309.428 64.383L309.375 66.6506L310.375 66.6738L311.375 66.6971L311.427 64.4295L310.428 64.4062ZM317.477 90L318.416 89.658L309.926 66.3318L308.986 66.6738L308.047 67.0159L316.537 90.342L317.477 90ZM308.986 66.6738L309.986 66.6506L309.933 64.383L308.934 64.4062L307.934 64.4295L307.987 66.6971L308.986 66.6738ZM308.934 64.4062V65.4062H311.166V64.4062V63.4062H308.934V64.4062ZM311.166 64.4062L310.232 64.7636L320.023 90.3573L320.957 90L321.891 89.6427L312.1 64.0489L311.166 64.4062ZM320.957 90V89H317.477V90V91H320.957V90ZM317.037 80.5254H316.037V83.3027H317.037H318.037V80.5254H317.037ZM317.037 83.3027V82.3027H302.658V83.3027V84.3027H317.037V83.3027ZM302.658 83.3027H303.658V80.5254H302.658H301.658V83.3027H302.658ZM302.658 80.5254V81.5254H317.037V80.5254V79.5254H302.658V80.5254Z" fill="white" mask="url(#path-7-outside-1_1_12)"/>
</svg>
