<?xml version="1.0" standalone="no"?>
<!DOCTYPE svg PUBLIC "-//W3C//DTD SVG 20010904//EN"
 "http://www.w3.org/TR/2001/REC-SVG-20010904/DTD/svg10.dtd">
<svg version="1.0" xmlns="http://www.w3.org/2000/svg"
 width="98.000000pt" height="87.000000pt" viewBox="0 0 98.000000 87.000000"
 preserveAspectRatio="xMidYMid meet">

<g transform="translate(0.000000,87.000000) scale(0.100000,-0.100000)"
fill="#FFFFFF" stroke="none">
<path d="M734 708 c-16 -12 -32 -24 -36 -27 -4 -3 -22 -59 -41 -123 -39 -132
-41 -130 55 -54 54 43 59 51 83 129 14 46 25 86 25 90 0 16 -59 6 -86 -15z"/>
<path d="M504 560 c-36 -26 -44 -39 -67 -117 -14 -48 -25 -88 -24 -89 1 -2 35
22 74 51 64 49 73 60 87 109 9 30 16 59 16 65 0 21 -46 11 -86 -19z"/>
<path d="M676 435 l-70 -53 -27 -91 -27 -91 30 0 c18 0 45 12 67 29 33 27 41
42 70 141 18 61 31 113 29 115 -1 1 -34 -21 -72 -50z"/>
<path d="M267 407 c-25 -22 -42 -47 -52 -82 -8 -27 -13 -51 -10 -53 6 -7 140
99 147 116 24 61 -24 72 -85 19z"/>
<path d="M464 345 c-58 -44 -72 -60 -83 -96 -7 -24 -15 -52 -17 -61 -8 -28 41
-23 84 9 20 15 39 28 40 29 5 4 52 167 49 170 -1 2 -34 -21 -73 -51z"/>
<path d="M275 277 c-23 -18 -53 -42 -68 -53 -15 -12 -30 -36 -33 -53 -6 -27
-4 -31 16 -31 39 0 106 57 119 102 7 22 15 46 18 54 8 22 -8 16 -52 -19z"/>
</g>
</svg>
